<svg width="222" height="40" viewBox="0 0 222 40" fill="none" xmlns="http://www.w3.org/2000/svg">
<path d="M16.4881 8C17.5587 8 18.5846 8.4292 19.3363 9.19156L19.6091 9.46817C20.3471 10.2166 20.7608 11.2255 20.7608 12.2766V15.4273C20.7608 16.336 20.0241 17.0728 19.1153 17.0728V17.0728C18.6797 17.0728 18.2618 16.9 17.9534 16.5924L9.37854 8.04133C9.37399 8.03679 9.37143 8.03062 9.37143 8.02419V8.02419C9.37143 8.01083 9.38227 8 9.39563 8H16.4881ZM15.5963 24.4679C15.5963 23.7494 16.1787 23.1669 16.8973 23.1669H17.3904C17.8625 23.1669 18.3156 23.353 18.6514 23.6848L19.5721 24.5945C20.3327 25.346 20.7608 26.3707 20.7608 27.4399V27.9658C20.7608 30.1749 18.9699 31.9658 16.7608 31.9658H4.63364C3.57207 31.9658 2.55405 31.5438 1.80378 30.7928L1.17015 30.1585C0.420874 29.4085 0 28.3917 0 27.3315V12C0 9.79086 1.79086 8 4 8H4.83091C5.89809 8 6.92102 8.42644 7.67218 9.18448L10.2978 11.8341C10.5589 12.0976 10.7053 12.4534 10.7053 12.8243V12.8243C10.7053 13.6013 10.0755 14.2311 9.29855 14.2311H8.44797C7.20127 14.2311 6.19062 15.2418 6.19062 16.4885V23.6075C6.19062 24.1804 6.41804 24.7298 6.82291 25.1351V25.1351C7.22832 25.5409 7.77841 25.7689 8.35203 25.7689H14.2953C15.0138 25.7689 15.5963 25.1864 15.5963 24.4679V24.4679Z" fill="white"/>
<path d="M43.4377 9.84736C44.1671 10.5946 44.5755 11.5974 44.5755 12.6417V27.3522C44.5755 28.4203 44.1483 29.4442 43.389 30.1955L42.7689 30.8091C42.02 31.5501 41.0089 31.9658 39.9554 31.9658H28.4277C27.3581 31.9658 26.3331 31.5374 25.5815 30.7764L24.9685 30.1556C24.2293 29.407 23.8147 28.3972 23.8147 27.345V14.5931C23.8147 13.7503 24.4979 13.067 25.3407 13.067V13.067C25.7434 13.067 26.1298 13.2263 26.4157 13.51L28.8231 15.8994C29.5798 16.6504 30.0053 17.6723 30.0053 18.7384V23.6659C30.0053 24.2233 30.2266 24.7579 30.6205 25.1522V25.1522C31.015 25.547 31.5502 25.7689 32.1083 25.7689H34.3849C36.594 25.7689 38.3849 23.978 38.3849 21.7689V18.8518C38.3849 17.7997 37.9703 16.7899 37.231 16.0413L36.618 15.4205C35.8665 14.6595 34.8415 14.2311 33.7719 14.2311H31.8002C30.7386 14.2311 29.7206 13.8091 28.9703 13.0581L26.3945 10.4796C26.1223 10.2072 25.9694 9.83791 25.9694 9.45285V9.45285C25.9694 8.65046 26.6199 8 27.4223 8H39.9491C41.0266 8 42.0585 8.43471 42.8112 9.20571L43.4377 9.84736Z" fill="white"/>
<path d="M67.6198 9.84736C68.3492 10.5946 68.7576 11.5974 68.7576 12.6416V27.3522C68.7576 28.4203 68.3304 29.4442 67.5711 30.1955L66.951 30.8091C66.2021 31.5501 65.191 31.9658 64.1375 31.9658H52.6098C51.5402 31.9658 50.5152 31.5374 49.7636 30.7764L49.1507 30.1556C48.4114 29.407 47.9968 28.3972 47.9968 27.345V14.5931C47.9968 13.7503 48.68 13.067 49.5228 13.067V13.067C49.9255 13.067 50.312 13.2263 50.5978 13.51L53.0052 15.8994C53.7619 16.6504 54.1874 17.6723 54.1874 18.7384V23.6659C54.1874 24.2233 54.4087 24.7579 54.8026 25.1522V25.1522C55.1971 25.547 55.7323 25.7689 56.2904 25.7689H58.567C60.7761 25.7689 62.567 23.978 62.567 21.7689V18.8518C62.567 17.7997 62.1524 16.7899 61.4131 16.0413L60.8001 15.4205C60.0486 14.6595 59.0236 14.2311 57.954 14.2311H55.9823C54.9207 14.2311 53.9027 13.8091 53.1524 13.0581L50.5766 10.4796C50.3044 10.2072 50.1515 9.83791 50.1515 9.45285V9.45285C50.1515 8.65046 50.802 8 51.6044 8H64.1312C65.2087 8 66.2406 8.43471 66.9933 9.20571L67.6198 9.84736Z" fill="white"/>
<path d="M73.1014 30.0654C72.4042 29.3754 72.0119 28.4352 72.0119 27.4543V26.1812C72.0119 23.3771 75.4028 21.9735 77.3846 23.9573V23.9573C77.974 24.5473 78.3051 25.3472 78.3051 26.1812V29.639C78.3051 30.924 77.2634 31.9658 75.9784 31.9658V31.9658C75.3655 31.9658 74.7773 31.7239 74.3417 31.2928L73.1014 30.0654ZM91.595 13.2981C92.3489 14.0488 92.7727 15.0688 92.7727 16.1326V22.0652C92.7727 22.7682 92.2028 23.3381 91.4998 23.3381V23.3381C90.3661 23.3381 89.7981 24.7085 90.5993 25.5106L92.1366 27.0494C92.5439 27.4571 92.7727 28.0099 92.7727 28.5862V28.939C92.7727 30.6106 91.4176 31.9658 89.7459 31.9658H89.6034C88.7638 31.9658 87.9585 31.6326 87.3643 31.0394L75.8854 19.5795C75.6171 19.3117 75.4663 18.9482 75.4663 18.5691V18.5691C75.4663 17.7805 76.1056 17.1412 76.8942 17.1412H86.0252C86.3327 17.1412 86.5821 16.8919 86.5821 16.5843V16.5843C86.5821 16.4367 86.5235 16.2951 86.4192 16.1907L85.9498 15.7209C85.5444 15.315 84.9943 15.087 84.4207 15.087H76.6249C75.5553 15.087 74.5303 14.6587 73.7787 13.8976L72.8451 12.9521C72.3112 12.4116 72.0119 11.6824 72.0119 10.9226V10.9226C72.0119 9.32741 73.3051 8.03424 74.9003 8.03424H84.6566C85.7145 8.03424 86.7293 8.45331 87.479 9.19974L91.595 13.2981Z" fill="white"/>
<path d="M108.599 8C109.66 8 110.678 8.42198 111.429 9.173L115.551 13.2994C116.3 14.0495 116.721 15.0663 116.721 16.1264V27.9658C116.721 30.1749 114.93 31.9658 112.721 31.9658H109.647C108.592 31.9658 107.579 31.5487 106.83 30.8054L104.669 28.6618C104.349 28.3441 104.169 27.9118 104.169 27.4607V27.4607C104.169 26.5264 104.926 25.7689 105.861 25.7689H107.35C109.106 25.7689 110.53 24.3448 110.53 22.5881V18.7084C110.53 17.6398 110.103 16.6157 109.343 15.8643L108.396 14.9277C107.945 14.4814 107.336 14.2311 106.701 14.2311H102.414C101.849 14.2311 101.567 14.9132 101.965 15.3123V15.3123C102.084 15.4311 102.151 15.5922 102.151 15.7601V28.3706C102.151 28.7654 102.308 29.1441 102.587 29.4234V29.4234C103.524 30.362 102.859 31.9658 101.533 31.9658H99.8435C99.2623 31.9658 98.705 31.7347 98.2943 31.3236L97.1303 30.1585C96.3811 29.4085 95.9602 28.3917 95.9602 27.3315V12C95.9602 9.79086 97.7511 8 99.9602 8H108.599Z" fill="white"/>
<path d="M119.975 17.4399C119.975 16.7455 120.538 16.1826 121.233 16.1826V16.1826C121.566 16.1826 121.886 16.3152 122.122 16.5513L125.817 20.2495C126.566 20.9995 126.987 22.0163 126.987 23.0765V29.0953C126.987 30.6806 125.702 31.9658 124.116 31.9658V31.9658C123.349 31.9658 122.613 31.6584 122.074 31.1122L121.129 30.1556C120.39 29.407 119.975 28.3972 119.975 27.345V17.4399ZM122.877 8.03424C123.647 8.03424 124.385 8.34034 124.93 8.88512L126.205 10.1614C126.705 10.6628 126.987 11.3424 126.987 12.0511V12.0511C126.987 14.4338 124.105 15.6264 122.421 13.9408L120.691 12.2083C120.233 11.7497 119.975 11.1281 119.975 10.4799V10.4799C119.975 9.12918 121.07 8.03424 122.421 8.03424H122.877Z" fill="white"/>
<path d="M144.966 22.1651C144.966 21.3759 145.606 20.7361 146.396 20.7361V20.7361C146.773 20.7361 147.135 20.8852 147.402 21.151L149.975 23.7054C150.732 24.4564 151.157 25.4782 151.157 26.5441V29.6742C151.157 30.9398 150.131 31.9658 148.866 31.9658V31.9658C148.253 31.9658 147.666 31.7204 147.235 31.2844L146.12 30.1556C145.381 29.407 144.966 28.3972 144.966 27.345V22.1651ZM146.51 8C147.58 8 148.605 8.42828 149.356 9.18921L150.035 9.87702C150.754 10.6048 151.157 11.5864 151.157 12.6092V13.0393C151.157 16.3456 147.159 18.0006 144.822 15.6615L144.607 15.4462C144.049 14.8874 143.291 14.5735 142.502 14.5735H136.85C136.286 14.5735 136.003 15.2555 136.402 15.6547V15.6547C136.52 15.7735 136.587 15.9345 136.587 16.1025V29.6929C136.587 30.9482 135.569 31.9658 134.314 31.9658V31.9658C133.711 31.9658 133.132 31.726 132.706 31.2992L131.566 30.1585C130.817 29.4085 130.396 28.3917 130.396 27.3315V12C130.396 9.79086 132.187 8 134.396 8H146.51Z" fill="white"/>
<path d="M167.217 8C168.279 8 169.297 8.42198 170.047 9.173L174.169 13.2994C174.918 14.0495 175.339 15.0663 175.339 16.1264V28.5181C175.339 30.4411 173.78 32 171.857 32H171.31C170.736 32 170.186 31.772 169.781 31.3662V31.3662C169.376 30.9609 169.149 30.4115 169.149 29.8386V18.7284C169.149 17.6683 168.728 16.6515 167.978 15.9014L167.015 14.9371C166.564 14.4851 165.951 14.2311 165.312 14.2311H161.032C160.468 14.2311 160.185 14.9132 160.584 15.3123V15.3123C160.702 15.4311 160.769 15.5922 160.769 15.7601V19.1775C160.769 21.1539 162.371 22.7561 164.348 22.7561H164.935C165.509 22.7561 166.059 22.9841 166.464 23.3899V23.3899C166.869 23.7952 167.096 24.3446 167.096 24.9175V25.7892C167.096 27.5365 165.68 28.9529 163.933 28.9529H162.293C161.451 28.9529 160.769 29.635 160.769 30.4765V30.4765C160.769 31.3179 160.087 32 159.246 32H158.502C157.895 32 157.314 31.7572 156.888 31.3259L155.732 30.1556C154.993 29.407 154.578 28.3971 154.578 27.3449V12C154.578 9.79086 156.369 8 158.578 8H167.217Z" fill="white"/>
<path d="M194.942 25.5292C196.011 25.5292 197.036 25.9576 197.788 26.7186L198.848 27.7917C199.301 28.2506 199.555 28.8694 199.555 29.5143V29.5143C199.555 30.8682 198.457 31.9658 197.103 31.9658H196.067C195.146 31.9658 194.263 31.6015 193.61 30.9526L190.604 27.9676C190.335 27.6998 190.183 27.3355 190.183 26.9556V26.9556C190.183 26.1678 190.822 25.5292 191.61 25.5292H194.942ZM184.655 8.61185C185.02 8.98794 185.224 9.49141 185.224 10.0155V23.8736C185.224 24.9337 185.645 25.9505 186.394 26.7006L190.085 30.3953C190.257 30.5678 190.354 30.8017 190.354 31.0456V31.0456C190.354 31.5538 189.942 31.9658 189.434 31.9658H182.794C180.585 31.9658 178.794 30.1749 178.794 27.9658V11.7014C178.794 9.65717 180.451 8 182.495 8H183.208C183.753 8 184.275 8.22073 184.655 8.61185V8.61185Z" fill="white"/>
<path d="M218.734 24.6562C218 23.9219 217.005 23.5093 215.967 23.5093H206.738C205.671 23.5093 204.647 23.0824 203.896 22.3237L202.143 20.5537C201.564 19.9687 201.239 19.1787 201.239 18.3554V17.3204C201.239 14.912 204.155 13.7105 205.852 15.4196V15.4196C206.358 15.9299 207.048 16.2168 207.766 16.2168H217.401C218.462 16.2168 219.48 16.6388 220.23 17.3898L220.83 17.9899C221.579 18.7399 222 19.7567 222 20.8169V24.304C222 25.1319 221.329 25.8031 220.501 25.8031V25.8031C220.103 25.8031 219.721 25.645 219.44 25.3635L218.734 24.6562ZM201.239 27.1158C201.239 26.2585 201.934 25.5635 202.791 25.5635H215.067C216.133 25.5635 217.155 25.989 217.906 26.7457L221.768 30.6362C221.917 30.7861 222 30.9887 222 31.1999V31.1999C222 31.6418 221.642 32 221.2 32H207.114C206.046 32 205.023 31.5736 204.272 30.8155L201.689 28.2084C201.401 27.9177 201.239 27.525 201.239 27.1158V27.1158ZM222 11.9296C222 13.1629 221 14.1626 219.767 14.1626H209.146C208.091 14.1626 207.078 13.7453 206.328 13.0016L203.905 10.5965C203.622 10.3152 203.462 9.93228 203.462 9.53287V9.53287C203.462 8.7052 204.133 8.03424 204.961 8.03424H217.387C218.457 8.03424 219.482 8.46259 220.233 9.22364L221.356 10.3605C221.769 10.7785 222 11.3422 222 11.9296V11.9296Z" fill="white"/>
</svg>
