<svg width="40" height="40" viewBox="0 0 168 168" fill="none" xmlns="http://www.w3.org/2000/svg">
<path d="M168 100C168 78.4339 151.774 64 125.938 64H112C109.791 64 108 62.2091 108 60V16C108 13.7909 106.209 12 104 12H92.4408C90.9421 12 89.5691 12.8378 88.8837 14.1706L57.5572 75.0833C56.0687 77.9775 51.9313 77.9775 50.4428 75.0833L19.1163 14.1706C18.4309 12.8378 17.0579 12 15.5592 12H4C1.79086 12 0 13.7909 0 16V104C0 106.209 1.79086 108 4 108H16C18.2091 108 20 106.209 20 104V68.9443C20 64.7234 25.6901 63.3801 27.5777 67.1554L46.8944 105.789C47.572 107.144 48.957 108 50.4721 108H57.5279C59.043 108 60.428 107.144 61.1056 105.789L80.4223 67.1554C82.3099 63.3801 88 64.7234 88 68.9443V80C88 82.2091 89.7909 84 92 84H124C137.73 84 146 89.4018 146 100C146 110.352 137.73 116 124 116H92C89.7909 116 88 117.791 88 120V152C88 154.209 89.7909 156 92 156H104C106.209 156 108 154.209 108 152V140C108 137.791 109.791 136 112 136H126C151.837 136 168 121.32 168 100Z" fill="white"/>
<path d="M0 124C0 119.582 3.58172 116 8 116H32C36.4183 116 40 119.582 40 124C40 128.418 36.4183 132 32 132H8C3.58172 132 0 128.418 0 124Z" fill="#FFEE32"/>
<path d="M48 124C48 119.582 51.5817 116 56 116H72C76.4183 116 80 119.582 80 124C80 128.418 76.4183 132 72 132H56C51.5817 132 48 128.418 48 124Z" fill="#FFEE32"/>
<path d="M152 148C152 143.582 155.582 140 160 140C164.418 140 168 143.582 168 148C168 152.418 164.418 156 160 156C155.582 156 152 152.418 152 148Z" fill="#FFEE32"/>
<path d="M120 44C120 39.5817 123.582 36 128 36H160C164.418 36 168 39.5817 168 44C168 48.4183 164.418 52 160 52H128C123.582 52 120 48.4183 120 44Z" fill="#FFEE32"/>
<path d="M120 20C120 15.5817 123.582 12 128 12C132.418 12 136 15.5817 136 20C136 24.4183 132.418 28 128 28C123.582 28 120 24.4183 120 20Z" fill="#FFEE32"/>
<path d="M144 20C144 15.5817 147.582 12 152 12H160C164.418 12 168 15.5817 168 20C168 24.4183 164.418 28 160 28H152C147.582 28 144 24.4183 144 20Z" fill="#FFEE32"/>
<path d="M24 148C24 143.582 27.5817 140 32 140H72C76.4183 140 80 143.582 80 148C80 152.418 76.4183 156 72 156H32C27.5817 156 24 152.418 24 148Z" fill="#FFEE32"/>
<path d="M0 148C0 143.582 3.58172 140 8 140C12.4183 140 16 143.582 16 148C16 152.418 12.4183 156 8 156C3.58172 156 0 152.418 0 148Z" fill="#FFEE32"/>
<path d="M88 100C88 95.5817 91.5817 92 96 92H130C134.418 92 138 95.5817 138 100C138 104.418 134.418 108 130 108H96C91.5817 108 88 104.418 88 100Z" fill="#FFEE32"/>
<path d="M34 20C34 15.5817 37.5817 12 42 12H66C70.4183 12 74 15.5817 74 20C74 24.4183 70.4183 28 66 28H42C37.5817 28 34 24.4183 34 20Z" fill="#FFEE32"/>
<path d="M46 44C46 39.5817 49.5817 36 54 36C58.4183 36 62 39.5817 62 44C62 48.4183 58.4183 52 54 52C49.5817 52 46 48.4183 46 44Z" fill="#FFEE32"/>
</svg>
