<svg width="64" height="40" viewBox="0 0 64 40" fill="none" xmlns="http://www.w3.org/2000/svg">
<path d="M37.7061 2.91937V2.02184H36.5787C36.4742 2.01417 36.3619 2.0065 36.237 2.0065C34.0384 2.02184 31.7148 1.98604 29.4908 2.0065C29.3658 2.0065 29.2357 2.00905 29.1005 2.02184H28.3481L26.6979 3.66349H26.7081C18.6203 11.6978 10.609 19.8319 2.52883 27.8995C2.50332 27.9251 2.48292 27.9455 2.45741 27.9762L1.86058 28.5797V33.3359C1.85293 34.8931 1.84273 36.4504 1.85803 38C4.71976 38 7.85949 37.9847 10.7212 37.9847C11.1548 37.5397 11.4787 37.2226 11.8409 36.8621C20.2628 28.4646 28.9449 19.6606 37.3567 11.2913C37.8387 10.808 37.7061 10.9128 37.7163 10.2071C37.7443 8.14094 37.6984 5.64778 37.752 3.58166C37.7597 3.32595 37.7443 3.10348 37.7086 2.91682H37.7061V2.91937Z" fill="#FF2F01"/>
<path d="M62.1479 35.6652C62.1274 34.5605 62.1555 33.507 62.1479 32.4279C62.1453 22.3734 62.1479 12.0761 62.1479 2.02417H52.925L40.7793 14.2087C36.3617 18.589 31.9289 22.9769 27.5088 27.4186C27.4322 27.4978 27.3583 27.595 27.2843 27.7075L26.5625 28.4312V37.9947H35.2089C39.3612 33.9238 43.5696 29.6049 47.5893 25.5749C51.4993 21.6549 54.7869 18.3051 57.993 15.1804C58.0211 17.4971 57.9853 19.1438 57.993 20.3508L51.6064 26.7742V28.4261H51.6141C51.5732 29.408 51.6217 31.1903 51.6141 34.5349C51.6141 35.5731 51.6141 36.3479 51.6115 37.9972H61.1761C61.5944 37.5855 61.6148 37.5676 62.1453 37.0281V35.6652H62.1479Z" fill="#FF2F01"/>
</svg>
