<svg width="1000" height="168" viewBox="0 0 1000 168" fill="none" xmlns="http://www.w3.org/2000/svg">
<path d="M168 100C168 78.4339 151.774 64 125.938 64H112C109.791 64 108 62.2091 108 60V16C108 13.7909 106.209 12 104 12H92.4408C90.9421 12 89.5691 12.8378 88.8837 14.1706L57.5572 75.0833C56.0687 77.9775 51.9313 77.9775 50.4428 75.0833L19.1163 14.1706C18.4309 12.8378 17.0579 12 15.5592 12H4C1.79086 12 0 13.7909 0 16V104C0 106.209 1.79086 108 4 108H16C18.2091 108 20 106.209 20 104V68.9443C20 64.7234 25.6901 63.3801 27.5777 67.1554L46.8944 105.789C47.572 107.144 48.957 108 50.4721 108H57.5279C59.043 108 60.428 107.144 61.1056 105.789L80.4223 67.1554C82.3099 63.3801 88 64.7234 88 68.9443V80C88 82.2091 89.7909 84 92 84H124C137.73 84 146 89.4018 146 100C146 110.352 137.73 116 124 116H92C89.7909 116 88 117.791 88 120V152C88 154.209 89.7909 156 92 156H104C106.209 156 108 154.209 108 152V140C108 137.791 109.791 136 112 136H126C151.837 136 168 121.32 168 100Z" fill="white"/>
<path d="M0 124C0 119.582 3.58172 116 8 116H32C36.4183 116 40 119.582 40 124C40 128.418 36.4183 132 32 132H8C3.58172 132 0 128.418 0 124Z" fill="#FFEE32"/>
<path d="M48 124C48 119.582 51.5817 116 56 116H72C76.4183 116 80 119.582 80 124C80 128.418 76.4183 132 72 132H56C51.5817 132 48 128.418 48 124Z" fill="#FFEE32"/>
<path d="M152 148C152 143.582 155.582 140 160 140C164.418 140 168 143.582 168 148C168 152.418 164.418 156 160 156C155.582 156 152 152.418 152 148Z" fill="#FFEE32"/>
<path d="M120 44C120 39.5817 123.582 36 128 36H160C164.418 36 168 39.5817 168 44C168 48.4183 164.418 52 160 52H128C123.582 52 120 48.4183 120 44Z" fill="#FFEE32"/>
<path d="M120 20C120 15.5817 123.582 12 128 12C132.418 12 136 15.5817 136 20C136 24.4183 132.418 28 128 28C123.582 28 120 24.4183 120 20Z" fill="#FFEE32"/>
<path d="M144 20C144 15.5817 147.582 12 152 12H160C164.418 12 168 15.5817 168 20C168 24.4183 164.418 28 160 28H152C147.582 28 144 24.4183 144 20Z" fill="#FFEE32"/>
<path d="M24 148C24 143.582 27.5817 140 32 140H72C76.4183 140 80 143.582 80 148C80 152.418 76.4183 156 72 156H32C27.5817 156 24 152.418 24 148Z" fill="#FFEE32"/>
<path d="M0 148C0 143.582 3.58172 140 8 140C12.4183 140 16 143.582 16 148C16 152.418 12.4183 156 8 156C3.58172 156 0 152.418 0 148Z" fill="#FFEE32"/>
<path d="M88 100C88 95.5817 91.5817 92 96 92H130C134.418 92 138 95.5817 138 100C138 104.418 134.418 108 130 108H96C91.5817 108 88 104.418 88 100Z" fill="#FFEE32"/>
<path d="M34 20C34 15.5817 37.5817 12 42 12H66C70.4183 12 74 15.5817 74 20C74 24.4183 70.4183 28 66 28H42C37.5817 28 34 24.4183 34 20Z" fill="#FFEE32"/>
<path d="M46 44C46 39.5817 49.5817 36 54 36C58.4183 36 62 39.5817 62 44C62 48.4183 58.4183 52 54 52C49.5817 52 46 48.4183 46 44Z" fill="#FFEE32"/>
<path d="M365.895 122.802C365.908 126.125 363.218 128.825 359.895 128.825H352.221C348.912 128.825 346.228 126.147 346.221 122.838L346.164 96.0796C346.151 89.9912 338.125 87.791 335.009 93.0215L321.189 116.219C320.107 118.035 318.148 119.148 316.034 119.148H313.388C311.29 119.148 309.345 118.052 308.257 116.259L294.699 93.8988C291.551 88.7079 283.568 90.9391 283.568 97.0097V122.825C283.568 126.139 280.882 128.825 277.568 128.825H270C266.686 128.825 264 126.139 264 122.825V44C264 40.6863 266.686 38 270 38H277.844C279.95 38 281.902 39.1047 282.987 40.9106L309.946 85.793C312.287 89.691 317.945 89.6694 320.256 85.7537L346.705 40.9498C347.785 39.1217 349.749 38 351.872 38H359.592C362.897 38 365.579 40.6722 365.592 43.9769L365.895 122.802Z" fill="white"/>
<path d="M386.82 128.825C383.506 128.825 380.82 126.139 380.82 122.825V44C380.82 40.6863 383.506 38 386.82 38H395.669C398.983 38 401.669 40.6863 401.669 44V122.825C401.669 126.139 398.983 128.825 395.669 128.825H386.82Z" fill="white"/>
<path d="M479.077 44C479.077 40.6863 481.764 38 485.077 38H493.81C497.124 38 499.81 40.6863 499.81 44V122.825C499.81 126.139 497.124 128.825 493.81 128.825H485.417C483.616 128.825 481.911 128.016 480.771 126.622L448.14 86.701C444.571 82.3341 437.495 84.8581 437.495 90.4982V122.825C437.495 126.139 434.808 128.825 431.495 128.825H422.878C419.564 128.825 416.878 126.139 416.878 122.825V44C416.878 40.6863 419.564 38 422.878 38H431.267C433.07 38 434.778 38.811 435.917 40.2087L468.427 80.0844C471.993 84.4588 479.077 81.937 479.077 76.2931V44Z" fill="white"/>
<path d="M549.816 128.825C546.502 128.825 543.816 126.139 543.816 122.825V72.758C543.816 69.4443 546.502 66.758 549.816 66.758H558.782C562.095 66.758 564.782 69.4443 564.782 72.758V122.825C564.782 126.139 562.095 128.825 558.782 128.825H549.816ZM520.929 55.139C517.615 55.139 514.929 52.4527 514.929 49.139V44C514.929 40.6863 517.615 38 520.929 38H587.668C590.982 38 593.668 40.6863 593.668 44V49.139C593.668 52.4527 590.982 55.139 587.668 55.139H520.929Z" fill="white"/>
<path d="M688.134 38C712.245 38 727.387 50.5919 727.387 70.9955C727.387 91.1659 712.245 103.758 688.134 103.758H675.847C672.533 103.758 669.847 106.444 669.847 109.758V122.825C669.847 126.139 667.16 128.825 663.847 128.825H654.997C651.683 128.825 648.997 126.139 648.997 122.825V92.6188C648.997 89.3051 651.683 86.6188 654.997 86.6188H686.969C699.782 86.6188 706.188 80.7892 706.188 70.9955C706.188 60.9686 699.782 55.139 686.969 55.139H654.997C651.683 55.139 648.997 52.4527 648.997 49.139V44C648.997 40.6863 651.683 38 654.997 38H688.134Z" fill="white"/>
<path d="M768.274 101.892C773.216 105.085 778.705 100.72 776.378 95.3162L768.449 76.8998C766.361 72.0485 759.476 72.0678 757.414 76.9307L743.095 110.71C742.266 112.666 743.702 114.834 745.826 114.834V114.834C747.275 114.834 748.505 113.774 748.794 112.355C752.332 94.9794 759.508 96.2274 768.274 101.892ZM750.712 125.436C749.512 127.425 747.436 128.825 745.114 128.825H721.907C717.6 128.825 714.696 124.422 716.392 120.463L750.156 41.6376C751.101 39.4309 753.27 38 755.671 38H768.499C770.895 38 773.061 39.4253 774.009 41.6256L808.607 121.918C810.131 125.455 807.967 129.513 804.127 129.81C771.216 132.35 761.034 108.325 750.712 125.436Z" fill="white"/>
<path d="M894.712 119.409C897.468 123.388 894.619 128.825 889.779 128.825H881.913C879.935 128.825 878.084 127.85 876.965 126.219L863.185 106.131C862.066 104.499 860.215 103.525 858.237 103.525H848.062C844.748 103.525 842.062 106.211 842.062 109.525V122.825C842.062 126.139 839.375 128.825 836.062 128.825H827.212C823.898 128.825 821.212 126.139 821.212 122.825V92.852C821.212 89.5383 823.898 86.852 827.212 86.852H859.184C871.997 86.852 878.403 80.7892 878.403 70.9955C878.403 60.9686 871.997 55.139 859.184 55.139H827.212C823.898 55.139 821.212 52.4527 821.212 49.139V44C821.212 40.6863 823.898 38 827.212 38H860.349C884.46 38 899.602 50.5919 899.602 70.9955C899.602 81.8318 895.19 90.4226 887.385 95.9885C884.292 98.1946 882.992 102.487 885.156 105.611L894.712 119.409Z" fill="white"/>
<path d="M978.394 128.825C976.588 128.825 974.878 128.011 973.739 126.61L950.834 98.4347C948.554 95.6298 944.33 95.4631 941.836 98.0797L936.08 104.118C935.016 105.234 934.423 106.716 934.423 108.258V122.825C934.423 126.139 931.736 128.825 928.423 128.825H919.69C916.376 128.825 913.69 126.139 913.69 122.825V44C913.69 40.6863 916.376 38 919.69 38H928.423C931.736 38 934.423 40.6863 934.423 44V65.3445C934.423 70.7734 941.058 73.411 944.785 69.4635L972.715 39.881C973.849 38.6804 975.427 38 977.078 38H984.043C989.28 38 992.003 44.2388 988.443 48.0791L963.77 74.6933C961.761 76.8603 961.629 80.1674 963.459 82.4877L992.339 119.11C995.442 123.045 992.639 128.825 987.627 128.825H978.394Z" fill="white"/>
</svg>
