<svg width="293" height="48" viewBox="0 0 293 48" fill="none" xmlns="http://www.w3.org/2000/svg">
<path d="M89.4147 43.4846H83.9521V7.33691H93.1039L103.088 35.9951H104.127L114.061 7.33691H123.263V43.4878H117.801V15.4432H116.762L106.936 43.4846H100.229L90.4533 15.4432H89.4147V43.4846Z" fill="white"/>
<path d="M143.34 43.4846V17.5084H147.761L148.28 20.1905H148.543C149.201 19.365 150.205 18.6249 151.561 17.9702C152.913 17.3155 154.474 16.9866 156.241 16.9866C158.252 16.9866 160.047 17.442 161.621 18.3529C163.198 19.2638 164.43 20.5479 165.313 22.202C166.197 23.8562 166.64 25.7507 166.64 27.8824V43.4782H161.491V28.2968C161.491 26.437 160.883 24.8873 159.67 23.6474C158.454 22.4076 156.947 21.7877 155.145 21.7877C153.929 21.7877 152.811 22.0819 151.792 22.6638C150.769 23.2489 149.961 24.0396 149.376 25.0391C148.783 26.0385 148.492 27.1234 148.492 28.2936V43.4751H143.343V43.4846H143.34Z" fill="white"/>
<path d="M180.574 43.4845C178.807 43.4845 177.426 43.0132 176.438 42.0644C175.45 41.1156 174.959 39.8378 174.959 38.2153V22.3064H170.801V17.5021H174.959V9.96509H180.108V17.5052H186.09V22.3095H180.108V37.181C180.108 38.2469 180.643 38.7814 181.72 38.7814H186.09V43.4813H180.577L180.574 43.4845Z" fill="white"/>
<path d="M192.43 43.4846V7.33691H208.602C210.645 7.33691 212.504 7.82715 214.166 8.80762C215.829 9.79125 217.14 11.1576 218.093 12.9129C219.046 14.6683 219.521 16.6672 219.521 18.9033C219.521 21.1394 219.046 23.1478 218.093 24.9221C217.14 26.6933 215.832 28.0723 214.166 29.0527C212.504 30.0364 210.645 30.5234 208.602 30.5234H197.889V43.4846H192.427H192.43ZM208.447 25.3586C210.008 25.3586 211.332 24.764 212.424 23.5779C213.517 22.3887 214.065 20.8294 214.065 18.9033C214.065 16.9771 213.526 15.4274 212.453 14.254C211.376 13.0837 210.043 12.4986 208.447 12.4986H197.889V25.3586H208.447Z" fill="white"/>
<path d="M226.542 42.9469C225.12 42.2416 224.03 41.2769 223.267 40.0529C222.504 38.8321 222.124 37.4658 222.124 35.9476C222.124 33.3984 223.008 31.3679 224.775 29.8561C226.542 28.3411 229.176 27.5852 232.682 27.5852H239.338V26.9147C239.338 25.2289 238.847 23.8847 237.859 22.8884C236.871 21.889 235.525 21.3892 233.831 21.3892C232.137 21.3892 230.883 21.7593 229.879 22.4994C228.875 23.2395 228.283 24.1251 228.112 25.1593H223.068C223.172 23.7487 223.654 22.4108 224.524 21.1552C225.389 19.8995 226.621 18.8906 228.217 18.1347C229.813 17.3788 231.681 16.9961 233.831 16.9961C237.09 16.9961 239.68 17.8912 241.605 19.6782C243.531 21.4683 244.49 23.8815 244.49 26.9083V43.4846H240.019L239.5 40.6412H239.237C238.645 41.5015 237.657 42.2796 236.273 42.9627C234.889 43.6522 233.271 43.997 231.434 43.997C229.597 43.997 227.967 43.6427 226.545 42.9374L226.542 42.9469ZM237.356 37.7283C238.673 36.4727 239.332 34.7584 239.332 32.5919V31.6589H233.043C231.102 31.6589 229.654 32.0384 228.701 32.7975C227.748 33.5565 227.273 34.537 227.273 35.742C227.273 36.9471 227.682 37.8516 228.495 38.5569C229.309 39.2622 230.465 39.6165 231.953 39.6165C234.243 39.6165 236.045 38.9902 237.362 37.7283H237.359H237.356Z" fill="white"/>
<path d="M251.346 43.4847V17.5085H255.767L256.286 19.9344H256.549C257.068 19.1405 257.698 18.5396 258.446 18.1253C259.193 17.711 260.187 17.5054 261.435 17.5054H266.011V22.3097H261.904C260.168 22.3097 258.835 22.7746 257.898 23.7045C256.96 24.6375 256.492 25.9595 256.492 27.6801V43.4847H251.343H251.346Z" fill="white"/>
<path d="M270.381 43.4846V7.33691H275.476V29.3374L286.29 17.5117H292.478L280.726 30.2167L292.997 43.4878H286.81L275.476 31.1434V43.4878H270.381V43.4846Z" fill="white"/>
<path d="M136.332 14.4249L130.927 18.3562H136.332V43.4784H130.179V9.8894H136.332V14.4249Z" fill="white"/>
<path d="M39.4857 5.00546V4.02182H38.2444C38.1304 4.01234 38.0069 4.00601 37.8676 4.00601C35.4451 4.02182 32.8864 3.98071 30.4385 4.00601C30.2992 4.00601 30.1567 4.00917 30.011 4.02182H29.1814L27.3637 5.82146H27.3764C18.4685 14.6394 9.64613 23.5616 0.747769 32.4143C0.719269 32.4428 0.697102 32.4649 0.668602 32.4966L0.0131 33.1576V38.3731C0.00359993 40.081 -0.0059001 41.7889 0.00993328 43.4905C3.16078 43.4905 6.61879 43.4747 9.76963 43.4747C10.2446 42.9876 10.6025 42.6397 11.0046 42.2412C20.2798 33.0279 29.84 23.3687 39.1026 14.1871C39.6346 13.6557 39.4889 13.7696 39.4984 12.9979C39.5301 10.7301 39.4794 7.99431 39.5396 5.72658C39.5491 5.44509 39.5301 5.20471 39.4921 4.99597H39.4889L39.4857 5.00546Z" fill="#FF2F01"/>
<path d="M66.4025 40.9322C66.3771 39.7176 66.412 38.5664 66.4025 37.3803C66.3993 26.3485 66.4025 15.0509 66.4025 4.02222H56.2469L42.8709 17.3882C38.0037 22.1925 33.1239 27.0095 28.2567 31.8802C28.1743 31.9688 28.0888 32.0731 28.0097 32.1965L27.2148 32.9904V43.4845H36.737C41.3097 39.0187 45.9457 34.2808 50.3696 29.8592C54.6763 25.5578 58.2958 21.8826 61.8266 18.4541C61.8583 20.9938 61.8171 22.803 61.8266 24.125L54.7934 31.1717V32.984H54.8029C54.7586 34.0625 54.8124 36.0172 54.8029 39.686C54.8029 40.8246 54.8029 41.6754 54.7998 43.4845H65.3321C65.7913 43.0323 65.8166 43.0133 66.3993 42.4218V40.929L66.4025 40.9322Z" fill="#FF2F01"/>
</svg>
